<?xml version="1.0" encoding="UTF-8" standalone="no"?>
<svg xmlns="http://www.w3.org/2000/svg" xml:space="preserve" version="1.1" y="0px" x="0px" xmlns:xlink="http://www.w3.org/1999/xlink" viewBox="-346 256 100 100" enable-background="new -346 256 100 100"><path d="m-277.32 317.78v-7.519h-4.219v-15.91h2.271v-4.871h-2.597s0-4.87-3.247-9.09-7.145-6.168-7.145-6.168v-8.442h-1.947v-7.144h-3.573v7.144h-1.946v8.442s-3.897 1.948-7.145 6.168-3.247 9.09-3.247 9.09h-2.596v4.871h2.271v15.91h-4.221v7.519h-31.232v38.22h5.278v-16.794h3.088v16.79h3.089v-16.794h3.087v16.79h3.089v-16.794h3.088v16.79h9.266v-16.794h3.088v16.79h3.089v-16.794h3.089v16.79h3.087v-16.794h3.089v16.79h3.087v-16.794h3.09v16.79h3.087v-16.794h3.09v16.79h3.087v-16.794h3.09v16.79h3.089v-16.794h3.089v16.79h9.264v-16.794h3.09v16.79h3.089v-16.794h3.088v16.79h3.089v-16.794h3.089v16.79h5.003v-38.223h-31.29zm-60.2 18.34h-3.088v-4.931h3.088v4.93zm6.17 0h-3.087v-4.931h3.087v4.93zm43.64-41.77h2.361v15.74h-2.361v-15.74zm-4.71 0h2.359v15.74h-2.359v-15.74zm-4.72 0h2.358v15.74h-2.358v-15.74zm-4.72 0h2.358v15.74h-2.358v-15.74zm-4.72 0h2.358v15.74h-2.358v-15.74zm-18.59 41.77h-3.088v-4.931h3.088v4.93zm12.35 0h-3.088v-4.931h3.088v4.93zm6.18 0h-3.089v-4.931h3.089v4.93zm6.18 0h-3.089v-4.931h3.089v4.93zm6.18 0h-3.09v-4.931h3.09v4.93zm6.18 0h-3.09v-4.931h3.09v4.93zm6.17 0h-3.09v-4.931h3.09v4.93zm6.18 0h-3.089v-4.931h3.089v4.93zm-40.37-8.41l20.103-5.88 20.599 5.88h-40.7zm52.72 8.41h-3.09v-4.931h3.09v4.93zm6.18 0h-3.088v-4.931h3.088v4.93zm6.18 0h-3.089v-4.931h3.089v4.93z"/></svg>
